<?xml version="1.0" encoding="iso-8859-1"?>
<!-- Uploaded to: SVG Repo, www.svgrepo.com, Generator: SVG Repo Mixer Tools -->
<svg height="100%" width="100%" version="1.1" id="Layer_1" xmlns="http://www.w3.org/2000/svg" xmlns:xlink="http://www.w3.org/1999/xlink" 
	 viewBox="95 0 361.985 511.985" >
<path style="fill:#ED5564;" d="M405.331,32H106.66c-5.89,0-10.663,4.78-10.663,10.671v458.658c0,5.891,4.773,10.656,10.663,10.656
	h298.671c5.875,0,10.656-4.766,10.656-10.656V42.671C415.987,36.78,411.206,32,405.331,32z"/>
<path style="fill:#4FC2E9;" d="M191.994,74.67h-42.663c-5.891,0-10.672,4.781-10.672,10.672v63.998
	c0,5.891,4.781,10.656,10.672,10.656h42.663c5.891,0,10.663-4.766,10.663-10.656V85.341C202.657,79.451,197.885,74.67,191.994,74.67
	z"/>
<path style="fill:#E6E9ED;" d="M191.994,74.67h-42.663c-5.891,0-10.672,4.781-10.672,10.672v21.327h63.998V85.341
	C202.657,79.451,197.885,74.67,191.994,74.67z"/>
<path style="fill:#4FC2E9;" d="M277.335,74.67h-42.678c-5.891,0-10.664,4.781-10.664,10.672v63.998
	c0,5.891,4.773,10.656,10.664,10.656h42.678c5.875,0,10.655-4.766,10.655-10.656V85.341C287.99,79.451,283.21,74.67,277.335,74.67z"
	/>
<path style="fill:#E6E9ED;" d="M277.335,74.67h-42.678c-5.891,0-10.664,4.781-10.664,10.672v21.327h63.997V85.341
	C287.99,79.451,283.21,74.67,277.335,74.67z"/>
<path style="fill:#4FC2E9;" d="M362.644,74.67H319.99c-5.891,0-10.656,4.781-10.656,10.672v63.998
	c0,5.891,4.766,10.656,10.656,10.656h42.654c5.906,0,10.688-4.766,10.688-10.656V85.341C373.332,79.451,368.551,74.67,362.644,74.67
	z"/>
<path style="fill:#E6E9ED;" d="M362.644,74.67H319.99c-5.891,0-10.656,4.781-10.656,10.672v21.327h63.998V85.341
	C373.332,79.451,368.551,74.67,362.644,74.67z"/>
<path style="fill:#4FC2E9;" d="M191.994,181.339h-42.663c-5.891,0-10.672,4.766-10.672,10.656v63.998
	c0,5.891,4.781,10.672,10.672,10.672h42.663c5.891,0,10.663-4.781,10.663-10.672v-63.998
	C202.657,186.104,197.885,181.339,191.994,181.339z"/>
<path style="fill:#E6E9ED;" d="M191.994,181.339h-42.663c-5.891,0-10.672,4.766-10.672,10.656v21.343h63.998v-21.343
	C202.657,186.104,197.885,181.339,191.994,181.339z"/>
<path style="fill:#4FC2E9;" d="M277.335,181.339h-42.678c-5.891,0-10.664,4.766-10.664,10.656v63.998
	c0,5.891,4.773,10.672,10.664,10.672h42.678c5.875,0,10.655-4.781,10.655-10.672v-63.998
	C287.99,186.104,283.21,181.339,277.335,181.339z"/>
<path style="fill:#E6E9ED;" d="M277.335,181.339h-42.678c-5.891,0-10.664,4.766-10.664,10.656v21.343h63.997v-21.343
	C287.99,186.104,283.21,181.339,277.335,181.339z"/>
<path style="fill:#4FC2E9;" d="M362.644,181.339H319.99c-5.891,0-10.656,4.766-10.656,10.656v63.998
	c0,5.891,4.766,10.672,10.656,10.672h42.654c5.906,0,10.688-4.781,10.688-10.672v-63.998
	C373.332,186.104,368.551,181.339,362.644,181.339z"/>
<path style="fill:#E6E9ED;" d="M362.644,181.339H319.99c-5.891,0-10.656,4.766-10.656,10.656v21.343h63.998v-21.343
	C373.332,186.104,368.551,181.339,362.644,181.339z"/>
<path style="fill:#4FC2E9;" d="M191.994,287.991h-42.663c-5.891,0-10.672,4.781-10.672,10.671v63.998
	c0,5.891,4.781,10.672,10.672,10.672h42.663c5.891,0,10.663-4.781,10.663-10.672v-63.998
	C202.657,292.772,197.885,287.991,191.994,287.991z"/>
<path style="fill:#E6E9ED;" d="M191.994,287.991h-42.663c-5.891,0-10.672,4.781-10.672,10.671v21.328h63.998v-21.328
	C202.657,292.772,197.885,287.991,191.994,287.991z"/>
<path style="fill:#4FC2E9;" d="M277.335,287.991h-42.678c-5.891,0-10.664,4.781-10.664,10.671v63.998
	c0,5.891,4.773,10.672,10.664,10.672h42.678c5.875,0,10.655-4.781,10.655-10.672v-63.998
	C287.99,292.772,283.21,287.991,277.335,287.991z"/>
<path style="fill:#E6E9ED;" d="M277.335,287.991h-42.678c-5.891,0-10.664,4.781-10.664,10.671v21.328h63.997v-21.328
	C287.99,292.772,283.21,287.991,277.335,287.991z"/>
<path style="fill:#4FC2E9;" d="M362.644,287.991H319.99c-5.891,0-10.656,4.781-10.656,10.671v63.998
	c0,5.891,4.766,10.672,10.656,10.672h42.654c5.906,0,10.688-4.781,10.688-10.672v-63.998
	C373.332,292.772,368.551,287.991,362.644,287.991z"/>
<path style="fill:#E6E9ED;" d="M362.644,287.991H319.99c-5.891,0-10.656,4.781-10.656,10.671v21.328h63.998v-21.328
	C373.332,292.772,368.551,287.991,362.644,287.991z"/>
<path style="fill:#4FC2E9;" d="M191.994,394.66h-42.663c-5.891,0-10.672,4.781-10.672,10.672v63.998
	c0,5.891,4.781,10.655,10.672,10.655h42.663c5.891,0,10.663-4.765,10.663-10.655v-63.998
	C202.657,399.441,197.885,394.66,191.994,394.66z"/>
<path style="fill:#E6E9ED;" d="M191.994,394.66h-42.663c-5.891,0-10.672,4.781-10.672,10.672v21.327h63.998v-21.327
	C202.657,399.441,197.885,394.66,191.994,394.66z"/>
<path style="fill:#4FC2E9;" d="M362.644,394.66H319.99c-5.891,0-10.656,4.781-10.656,10.672v63.998
	c0,5.891,4.766,10.655,10.656,10.655h42.654c5.906,0,10.688-4.765,10.688-10.655v-63.998
	C373.332,399.441,368.551,394.66,362.644,394.66z"/>
<path style="fill:#E6E9ED;" d="M362.644,394.66H319.99c-5.891,0-10.656,4.781-10.656,10.672v21.327h63.998v-21.327
	C373.332,399.441,368.551,394.66,362.644,394.66z"/>
<path style="fill:#656D78;" d="M415.987,0.001H95.997c-5.891,0-10.664,4.78-10.664,10.671v31.999
	c0,5.891,4.773,10.672,10.664,10.672h319.99c5.89,0,10.655-4.781,10.655-10.672V10.672C426.642,4.781,421.877,0.001,415.987,0.001z"
	/>
<path style="fill:#F6BB42;" d="M277.335,394.66h-42.678c-5.891,0-10.664,4.781-10.664,10.672v106.652h63.997V405.332
	C287.99,399.441,283.21,394.66,277.335,394.66z"/>
</svg>